Coordinates
version=1
nRows=17
nColumns=38
inDegrees=no

Units are S.I. units (second, meters, Newtons, ...)
If the header above contains a line with 'inDegrees', this indicates whether rotational values are in degrees (yes) or radians (no).

endheader
time	pelvis_tilt	pelvis_list	pelvis_rotation	pelvis_tx	pelvis_ty	pelvis_tz	hip_flexion_r	hip_adduction_r	hip_rotation_r	knee_angle_r	ankle_angle_r	subtalar_angle_r	mtp_angle_r	hip_flexion_l	hip_adduction_l	hip_rotation_l	knee_angle_l	ankle_angle_l	subtalar_angle_l	mtp_angle_l	lumbar_extension	lumbar_bending	lumbar_rotation	arm_flex_r	arm_add_r	arm_rot_r	elbow_flex_r	pro_sup_r	wrist_flex_r	wrist_dev_r	arm_flex_l	arm_add_l	arm_rot_l	elbow_flex_l	pro_sup_l	wrist_flex_l	wrist_dev_l
0.68	-3.08508	1.41469	-1.76928	0.739727	-0.337626	0.938931	-0.355976	-0.101881	-0.255951	0.562095	0.0193005	0	0	0.212102	-0.00723742	-0.482477	0.351994	0.0379169	0	0	-0.2708	-0.0432557	0.215343	0.0603869	-0.338659	0.930744	0.342245	0.690662	0	0	0.11196	-0.123487	0.0975556	0.245294	1.5708	0	0
0.69	-3.04345	1.40815	-1.80972	0.736805	-0.327652	0.940713	-0.316843	-0.142751	-0.273265	0.649807	-0.0357767	0	0	0.17461	0.0274403	-0.4478	0.298952	0.0250729	0	0	-0.277137	-0.0503522	0.219203	0.0533355	-0.347083	0.920039	0.35327	0.686643	0	0	0.115927	-0.119676	0.103128	0.243421	1.5708	0	0
0.7	-3.00119	1.42419	-1.84633	0.736147	-0.31631	0.940005	-0.270096	-0.151311	-0.258274	0.712757	-0.0774368	0	0	0.194611	0.0222152	-0.471642	0.331285	0.0419813	0	0	-0.252143	-0.0510526	0.211801	0.046353	-0.340524	0.903252	0.347254	0.710444	0	0	0.103312	-0.126008	0.105159	0.252676	1.5708	0	0
0.71	-3.00221	1.42253	-1.84221	0.733318	-0.306331	0.941	-0.229752	-0.171544	-0.256379	0.781873	-0.144549	0	0	0.166672	0.0416288	-0.443186	0.294586	0.0361581	0	0	-0.254104	-0.0481664	0.212351	0.0406979	-0.352754	0.909751	0.363127	0.683171	0	0	0.104853	-0.121984	0.103414	0.250883	1.5708	0	0
0.72	-2.94077	1.43563	-1.90229	0.733444	-0.296172	0.940924	-0.16727	-0.184497	-0.221507	0.857824	-0.19938	0	0	0.180115	0.0480505	-0.436146	0.310386	0.0458835	0	0	-0.234087	-0.055224	0.209716	0.0356164	-0.340431	0.871935	0.35032	0.734154	0	0	0.0936444	-0.133073	0.126083	0.268429	1.5708	0	0
0.73	-2.86652	1.43651	-1.97717	0.733143	-0.287345	0.941827	-0.106745	-0.198794	-0.199462	0.947474	-0.212941	0	0	0.188387	0.0408561	-0.482563	0.34722	0.0619957	0	0	-0.230769	-0.0678898	0.210391	0.0347859	-0.336386	0.858601	0.349434	0.742241	0	0	0.094	-0.140046	0.140994	0.275262	1.5708	0	0
0.74	-2.7723	1.40058	-2.06987	0.730204	-0.278598	0.946479	-0.112575	-0.247184	-0.176247	0.967469	-0.324508	0	0	0.118964	0.104258	-0.458777	0.273336	0.0332377	0	0	-0.2692	-0.101437	0.220581	0.0242051	-0.342217	0.823119	0.365224	0.741621	0	0	0.114692	-0.139957	0.172811	0.273058	1.5708	0	0
0.75	-2.86087	1.44873	-1.98024	0.733064	-0.26819	0.942187	-0.0194384	-0.190235	-0.129438	1.05432	-0.3073	0	0	0.169245	0.0583499	-0.417946	0.318838	0.0674582	0	0	-0.215585	-0.0678833	0.209478	0.0309666	-0.334287	0.865479	0.352545	0.738068	0	0	0.0865326	-0.151978	0.158751	0.291037	1.5708	0	0
0.76	-2.78478	1.44889	-2.04604	0.73025	-0.25855	0.942411	0.010876	-0.2111	-0.124366	1.07672	-0.397087	0	0	0.167381	0.0602663	-0.445002	0.334899	0.0818837	0	0	-0.211509	-0.07507	0.200825	0.0267899	-0.335678	0.856358	0.356368	0.744094	0	0	0.0855414	-0.154763	0.175121	0.296226	1.5708	0	0
0.77	-2.79123	1.44964	-2.03634	0.729506	-0.2497	0.942786	0.0492496	-0.207846	-0.100133	1.12368	-0.398902	0	0	0.166517	0.0527596	-0.460303	0.358402	0.0989523	0	0	-0.210879	-0.0734582	0.193157	0.0331341	-0.340559	0.893991	0.363668	0.704182	0	0	0.0896607	-0.1507	0.142003	0.280775	1.5708	0	0
0.78	-2.76741	1.43375	-2.05964	0.729505	-0.241148	0.945614	0.0726273	-0.215412	-0.075829	1.16479	-0.37518	0	0	0.110631	0.0951643	-0.397296	0.281039	0.0733266	0	0	-0.227375	-0.087036	0.189747	0.0389061	-0.33551	0.894732	0.360626	0.705766	0	0	0.0952561	-0.153526	0.140666	0.278166	1.5708	0	0
0.79	-2.85466	1.45045	-1.96777	0.728933	-0.233129	0.944407	0.132784	-0.186811	-0.0610738	1.24003	-0.257364	0	0	0.127569	0.0618899	-0.438558	0.320444	0.104086	0	0	-0.218061	-0.0692071	0.188335	0.0391118	-0.336499	0.888511	0.362747	0.71423	0	0	0.0956688	-0.153322	0.149901	0.280319	1.5708	0	0
0.8	-2.98223	1.43921	-1.83729	0.726605	-0.225783	0.948011	0.149994	-0.175667	-0.0508072	1.26726	-0.223868	0	0	0.0762622	0.0706487	-0.399274	0.263645	0.0890477	0	0	-0.242381	-0.0545641	0.186684	0.0458335	-0.343624	0.888416	0.367173	0.709328	0	0	0.106423	-0.143228	0.146159	0.270146	1.5708	0	0
0.81	-3.00379	1.43285	-1.81272	0.725766	-0.218055	0.949815	0.176035	-0.16718	-0.0251031	1.2979	-0.183377	0	0	0.0579055	0.0713312	-0.400657	0.26105	0.09317	0	0	-0.255434	-0.0547187	0.185906	0.0483826	-0.342643	0.883068	0.36885	0.707591	0	0	0.115994	-0.140332	0.146459	0.2633	1.5708	0	0
0.82	-3.06477	1.43327	-1.74806	0.725131	-0.210028	0.95066	0.208774	-0.154091	-0.0212754	1.32025	-0.158293	0	0	0.0571028	0.0566677	-0.419888	0.284935	0.111447	0	0	-0.260796	-0.0473476	0.186564	0.0474321	-0.340793	0.868984	0.37021	0.710367	0	0	0.12458	-0.136736	0.147141	0.253939	1.5708	0	0
0.83	-3.05102	1.43262	-1.75652	0.724475	-0.201238	0.951284	0.241644	-0.175522	-0.0287951	1.34635	-0.111578	0	0	0.0358224	0.0697228	-0.397528	0.259888	0.109279	0	0	-0.262186	-0.0502885	0.181208	0.04706	-0.335674	0.860437	0.369078	0.713769	0	0	0.12759	-0.137014	0.146951	0.249953	1.5708	0	0
0.84	-2.99601	1.42017	-1.80348	0.721941	-0.193079	0.953794	0.251224	-0.196395	-0.028755	1.32937	-0.188467	0	0	0.00758038	0.0853631	-0.386683	0.245907	0.103087	0	0	-0.277764	-0.0584276	0.170103	0.0508565	-0.333835	0.849113	0.368097	0.722903	0	0	0.133689	-0.133598	0.144991	0.244769	1.5708	0	0
